<svg id="wave" style="transform:rotate(0deg); transition: 0.3s" viewBox="0 0 1440 190" version="1.1" xmlns="http://www.w3.org/2000/svg"><defs><linearGradient id="sw-gradient-0" x1="0" x2="0" y1="1" y2="0"><stop stop-color="rgba(0, 0, 0, 1)" offset="0%"></stop><stop stop-color="rgba(0, 0, 0, 1)" offset="100%"></stop></linearGradient></defs><path style="transform:translate(0, 0px); opacity:1" fill="url(#sw-gradient-0)" d="M0,38L160,133L320,19L480,133L640,95L800,114L960,133L1120,19L1280,171L1440,95L1600,57L1760,152L1920,152L2080,38L2240,152L2400,95L2560,171L2720,57L2880,76L3040,133L3200,19L3360,19L3520,171L3680,19L3840,133L3840,190L3680,190L3520,190L3360,190L3200,190L3040,190L2880,190L2720,190L2560,190L2400,190L2240,190L2080,190L1920,190L1760,190L1600,190L1440,190L1280,190L1120,190L960,190L800,190L640,190L480,190L320,190L160,190L0,190Z"></path></svg>